<?xml version="1.0" standalone="no"?>
<!DOCTYPE svg PUBLIC "-//W3C//DTD SVG 20010904//EN"
 "http://www.w3.org/TR/2001/REC-SVG-20010904/DTD/svg10.dtd">
<svg version="1.0" xmlns="http://www.w3.org/2000/svg"
 width="2163.000000pt" height="2163.000000pt" viewBox="0 0 2163.000000 2163.000000"
 preserveAspectRatio="xMidYMid meet">
<metadata>
Created by potrace 1.11, written by Peter Selinger 2001-2013
</metadata>
<g transform="translate(0.000000,2163.000000) scale(0.100000,-0.100000)"
fill="#000000" stroke="none">
<path d="M7779 19606 c-2 -2 -60 -7 -129 -10 -69 -4 -138 -8 -155 -11 -16 -2
-61 -6 -98 -10 -69 -5 -274 -31 -314 -39 -11 -3 -43 -8 -70 -12 -26 -3 -57 -8
-68 -10 -11 -2 -33 -7 -49 -10 -119 -21 -335 -70 -461 -104 -82 -22 -160 -43
-172 -45 -64 -15 -462 -152 -573 -198 -14 -6 -27 -11 -30 -12 -13 -4 -57 -23
-212 -91 -148 -65 -399 -189 -513 -254 -22 -12 -63 -35 -92 -51 -158 -86 -680
-428 -713 -468 -3 -3 -41 -33 -85 -66 -86 -65 -295 -236 -360 -295 -22 -21
-69 -63 -105 -95 -71 -63 -394 -387 -475 -475 -667 -729 -1220 -1643 -1580
-2611 -101 -269 -237 -712 -290 -939 -23 -99 -57 -250 -61 -270 -3 -14 -14
-70 -25 -125 -26 -122 -25 -117 -35 -185 -4 -30 -8 -57 -9 -60 0 -3 -4 -27 -9
-53 -4 -27 -9 -58 -12 -70 -4 -23 -11 -74 -19 -139 -3 -24 -8 -59 -11 -78 -7
-52 -11 -87 -19 -170 -4 -41 -8 -76 -9 -77 -1 -2 -42 -14 -90 -28 -257 -74
-467 -256 -610 -527 -70 -134 -144 -371 -162 -523 -3 -22 -7 -51 -10 -63 -9
-44 -18 -217 -18 -362 0 -218 13 -382 40 -523 9 -42 17 -88 20 -100 2 -13 13
-65 24 -117 11 -52 23 -106 26 -120 3 -14 10 -43 16 -65 5 -22 11 -47 13 -55
8 -37 20 -84 52 -200 19 -69 36 -132 38 -140 10 -49 133 -400 188 -535 155
-384 368 -759 557 -979 135 -158 194 -217 325 -329 l30 -25 -50 -7 c-28 -3
-66 -8 -85 -11 -353 -44 -695 -227 -939 -500 -157 -176 -292 -434 -337 -644
-4 -19 -9 -39 -10 -45 -29 -118 -38 -215 -39 -400 0 -166 6 -252 25 -345 6
-30 13 -66 16 -80 22 -118 125 -361 211 -499 43 -69 152 -214 219 -291 45 -53
273 -280 335 -335 31 -28 73 -65 94 -84 21 -19 131 -109 244 -199 317 -253
429 -359 506 -482 118 -187 92 -451 -58 -599 -229 -226 -719 -164 -1299 165
-43 24 -79 44 -82 44 -3 0 -5 -290 -5 -645 l1 -646 66 -30 c215 -97 476 -171
732 -206 113 -15 518 -7 590 12 8 2 35 7 60 10 101 15 277 68 393 118 256 113
455 264 645 490 57 69 137 197 186 300 68 142 100 244 141 457 13 67 13 423 0
505 -22 138 -24 148 -48 232 -20 69 -21 81 -8 74 168 -89 749 -351 777 -351 3
0 20 -6 37 -14 54 -25 109 -47 182 -72 39 -14 79 -29 90 -34 27 -12 171 -62
271 -94 87 -29 82 -23 100 -107 2 -8 28 -119 59 -245 30 -126 67 -276 80 -334
14 -58 52 -215 84 -350 33 -135 71 -294 86 -355 l26 -110 560 0 559 0 9 30 c5
17 13 48 17 70 9 49 6 38 37 175 14 63 28 126 30 140 3 14 10 43 15 65 6 22
13 56 16 75 3 19 10 50 15 68 5 17 8 32 6 32 -3 0 0 11 5 26 6 14 12 37 15 52
8 49 66 317 71 336 5 16 13 17 53 12 25 -3 69 -8 96 -11 28 -4 61 -8 75 -10
14 -3 60 -7 103 -11 43 -3 87 -7 97 -9 10 -2 59 -6 107 -10 48 -3 108 -8 133
-10 25 -3 90 -7 145 -11 55 -3 103 -8 106 -10 4 -2 10 -21 14 -41 5 -21 9 -42
10 -48 4 -14 54 -255 59 -280 3 -11 10 -42 16 -70 6 -27 14 -61 16 -75 2 -14
13 -65 24 -115 10 -49 22 -106 26 -125 9 -42 8 -38 17 -75 4 -16 10 -41 12
-55 3 -14 8 -38 11 -55 4 -16 7 -36 7 -42 0 -7 5 -13 11 -14 6 -1 262 -2 569
-3 620 -1 570 -7 582 65 3 19 11 52 16 74 6 22 13 47 14 55 3 13 44 183 126
525 16 66 39 163 51 215 12 52 24 98 27 102 7 8 75 17 251 33 36 4 72 8 80 10
8 2 42 7 75 10 33 3 85 10 115 15 30 5 75 12 100 15 56 8 107 16 130 20 10 2
40 7 67 11 26 3 57 8 68 10 11 3 58 11 105 19 47 9 92 17 100 20 8 2 31 6 50
9 19 3 58 10 85 16 28 5 75 15 105 21 30 6 56 12 57 12 1 2 111 417 118 447 3
13 91 341 147 550 21 79 45 173 53 202 2 10 17 69 34 132 17 62 37 138 45 167
8 30 46 176 86 324 40 149 74 277 75 285 2 8 11 40 19 71 21 80 213 800 219
824 2 11 45 173 95 360 50 187 125 473 168 635 42 162 79 297 80 299 2 2 1244
4 1385 2 35 -1 37 -3 44 -43 4 -24 9 -47 11 -53 4 -13 81 -304 294 -1102 66
-249 120 -455 120 -457 0 -6 56 54 101 108 13 15 33 38 45 51 97 106 363 451
485 630 29 44 56 82 59 85 3 3 21 30 40 60 19 30 38 57 42 58 5 2 8 8 8 13 0
4 20 39 44 76 165 255 398 692 541 1013 193 434 338 852 466 1338 41 157 47
179 55 222 2 14 11 55 19 93 8 37 22 97 30 135 8 37 24 121 35 187 11 66 22
131 24 145 20 118 29 180 42 290 3 30 8 62 9 70 3 15 12 98 20 175 2 22 6 81
10 130 4 50 8 101 10 115 25 176 25 989 0 1265 -2 28 -7 82 -10 120 -3 39 -8
90 -10 115 -3 25 -7 68 -10 95 -9 98 -17 160 -23 170 -3 5 12 -2 34 -15 81
-50 192 -101 279 -129 121 -39 129 -41 280 -59 106 -13 288 -5 410 18 28 5 64
12 81 15 79 13 428 114 499 145 11 5 40 15 65 23 25 9 97 33 160 55 142 50
304 98 356 106 21 4 46 9 55 12 9 2 57 6 105 8 258 10 406 -95 526 -373 l37
-86 1 50 c1 28 3 59 5 70 2 11 7 63 10 115 4 52 9 109 11 125 6 43 6 422 0
475 -3 25 -8 72 -12 105 -10 101 -43 251 -79 361 -140 427 -441 720 -890 866
-49 16 -97 31 -105 33 -49 11 -170 35 -200 40 -19 3 -46 7 -60 10 -14 3 -50 7
-80 10 -30 3 -71 8 -90 10 -182 23 -535 23 -732 -1 -35 -4 -55 -6 -163 -20
-37 -4 -113 -17 -175 -29 -155 -29 -403 -97 -545 -149 -38 -14 -70 -24 -72
-22 -1 1 37 28 85 58 74 48 271 183 337 232 365 268 578 449 845 716 162 162
200 202 290 310 30 36 58 67 61 70 3 3 43 55 88 115 74 98 128 176 240 350 58
90 209 407 256 539 59 164 96 315 130 521 10 62 19 214 19 320 0 110 -12 294
-20 306 -2 4 -6 24 -8 45 -2 22 -9 59 -14 84 -6 25 -13 56 -15 70 -23 124
-106 352 -188 512 -67 130 -202 329 -214 316 -3 -3 -8 -25 -11 -49 -15 -114
-59 -305 -99 -426 -37 -113 -124 -309 -167 -378 -185 -293 -309 -419 -898
-913 -90 -75 -341 -331 -408 -416 -128 -160 -255 -374 -336 -563 -40 -93 -123
-337 -131 -384 -3 -18 -8 -36 -10 -40 -15 -23 -83 -392 -100 -539 -13 -112
-26 -269 -29 -342 0 -20 -3 -39 -6 -42 -3 -3 -25 41 -49 97 -53 123 -251 529
-318 649 -71 127 -139 246 -208 358 -50 83 -247 380 -295 445 -210 286 -425
554 -578 718 -196 212 -523 527 -692 667 -41 34 -86 72 -100 84 -14 11 -45 37
-70 56 -25 19 -47 37 -50 41 -16 20 -303 224 -465 331 -303 199 -626 379 -895
498 -47 21 -110 49 -140 63 -85 38 -337 136 -470 182 -189 65 -573 173 -679
190 -19 3 -37 8 -41 10 -3 2 -17 6 -31 9 -284 53 -409 72 -649 101 -40 5 -145
14 -240 21 -77 6 -706 14 -711 10z m1551 -4411 c14 -3 50 -8 80 -11 30 -3 58
-8 62 -10 4 -2 26 -7 50 -10 24 -4 87 -19 141 -35 404 -120 704 -363 886 -718
75 -145 143 -343 166 -481 3 -19 8 -42 10 -50 2 -8 7 -38 10 -66 3 -28 7 -60
9 -71 24 -122 24 -453 1 -613 -2 -14 -6 -50 -10 -80 -3 -30 -8 -66 -11 -80 -2
-14 -6 -38 -8 -55 -18 -130 -84 -446 -111 -530 -7 -22 -25 -83 -40 -135 -64
-220 -213 -567 -330 -764 -147 -248 -304 -452 -499 -648 -419 -421 -954 -725
-1637 -932 -94 -28 -424 -111 -479 -121 -19 -3 -93 -16 -165 -29 -146 -27
-246 -43 -320 -52 -27 -3 -57 -7 -65 -9 -8 -2 -46 -6 -85 -10 -38 -3 -86 -8
-106 -11 -246 -31 -617 -48 -1059 -48 -195 1 -425 2 -510 5 -172 4 -219 -1
-400 -36 -41 -9 -84 -17 -95 -19 -284 -56 -680 -225 -1039 -444 -37 -23 -69
-42 -71 -42 -3 0 -250 -143 -305 -175 -26 -16 -280 -141 -315 -155 -11 -5 -36
-16 -55 -24 -164 -73 -518 -169 -625 -169 -379 0 -839 598 -1130 1468 -90 268
-128 426 -180 760 -13 82 -12 380 1 470 16 105 45 204 77 259 18 32 34 45 82
64 68 27 59 25 180 53 128 31 325 31 448 0 150 -38 280 -98 437 -201 142 -94
219 -156 544 -440 356 -310 582 -459 821 -538 95 -32 122 -38 220 -48 52 -5
68 -2 117 20 154 70 356 285 629 666 123 172 154 218 522 760 155 229 300 442
322 473 56 80 273 386 293 413 10 12 24 32 32 44 18 26 254 337 278 365 9 11
29 37 44 57 15 20 33 42 40 50 7 7 40 47 73 88 251 313 621 703 895 940 41 36
77 67 80 70 3 3 28 23 55 45 28 21 52 42 55 45 12 15 216 163 325 236 187 125
384 233 595 327 190 84 501 174 650 186 88 8 376 5 420 -4z m-7475 -7320 c121
-14 144 -17 215 -30 172 -32 334 -78 510 -145 47 -18 89 -37 95 -42 10 -9 15
-1088 4 -1088 -7 0 -115 145 -204 275 -38 55 -73 102 -77 103 -4 2 -8 8 -8 13
0 5 -26 49 -58 97 -74 110 -228 364 -280 462 -43 81 -51 88 -157 121 -109 34
-274 123 -394 213 l-33 25 43 3 c64 4 286 0 344 -7z m2785 -156 c4 -8 10 -30
14 -49 3 -19 8 -46 11 -60 5 -27 43 -202 51 -235 2 -11 18 -85 35 -165 17 -80
32 -152 34 -160 7 -30 47 -216 51 -240 3 -14 16 -74 30 -135 13 -60 27 -121
29 -135 2 -14 19 -90 36 -170 17 -80 37 -176 45 -215 8 -38 19 -88 24 -110 10
-41 76 -347 90 -420 7 -33 64 -299 156 -730 8 -38 16 -79 18 -90 2 -11 9 -40
15 -65 35 -150 72 -332 69 -339 -3 -10 -263 117 -410 200 -48 27 -91 49 -95
49 -3 0 -14 6 -22 14 -14 12 -47 32 -116 70 -11 6 -53 32 -93 59 -40 26 -74
47 -77 47 -5 0 -301 206 -400 279 -47 34 -88 61 -90 59 -3 -2 11 -67 30 -144
36 -148 130 -539 165 -689 12 -49 23 -98 26 -107 5 -18 46 -29 269 -73 155
-31 283 -52 445 -74 183 -25 215 -29 312 -37 45 -3 94 -8 108 -9 62 -8 339
-18 470 -18 145 0 390 10 397 16 1 2 -39 16 -90 31 -123 37 -382 127 -462 161
-16 7 -95 40 -175 74 -80 34 -150 65 -157 69 -8 5 -9 19 -3 47 5 22 11 54 14
70 3 17 29 147 57 290 28 143 53 270 55 283 2 12 6 34 9 49 2 15 9 49 14 77 6
28 13 62 15 76 2 14 11 57 19 95 9 39 18 90 22 115 3 25 10 61 15 80 5 19 11
49 14 65 3 24 27 146 52 270 2 11 8 45 14 75 15 82 17 92 50 260 26 129 68
345 86 438 2 12 6 34 9 49 2 15 9 49 14 77 11 51 17 82 26 134 3 15 9 47 15
72 9 46 35 182 45 235 2 17 7 40 9 53 65 322 84 418 85 437 1 10 1087 12 1098
2 4 -5 42 -178 59 -272 3 -16 11 -61 19 -100 8 -38 16 -81 19 -95 3 -20 10
-53 21 -110 1 -3 4 -18 8 -35 4 -16 8 -41 11 -55 2 -14 21 -108 41 -210 20
-102 39 -196 42 -210 6 -33 107 -541 243 -1225 62 -308 114 -571 116 -585 2
-14 9 -45 14 -70 5 -25 12 -56 14 -70 5 -27 23 -118 31 -160 3 -14 8 -38 11
-55 4 -16 7 -36 7 -42 1 -20 27 -15 28 5 0 9 2 24 4 32 2 8 6 31 10 50 3 19
11 55 16 80 6 25 13 56 15 70 3 14 16 77 29 140 13 63 27 130 30 149 3 19 7
37 9 40 2 3 7 22 10 41 3 19 8 46 11 60 3 14 16 81 30 150 14 69 27 134 29
145 3 11 16 76 31 145 29 142 32 155 40 190 6 28 13 62 20 103 3 15 12 60 21
100 8 39 17 82 20 95 2 12 6 32 8 45 3 12 18 87 35 167 16 80 32 156 35 170 3
14 10 50 16 80 6 30 14 66 16 80 3 14 10 45 15 70 6 25 13 56 15 70 2 14 7 36
10 50 3 14 8 36 10 50 3 14 16 79 30 145 14 66 27 129 30 140 4 22 53 259 59
289 3 11 19 90 36 175 17 86 35 160 39 165 9 9 1227 13 1236 4 2 -3 -2 -32
-11 -64 -13 -50 -130 -539 -140 -584 -8 -36 -76 -318 -85 -350 -5 -19 -19 -75
-31 -125 -25 -108 -113 -479 -175 -740 -25 -104 -47 -197 -49 -205 -2 -8 -13
-53 -25 -100 -11 -47 -23 -96 -26 -110 -3 -14 -12 -52 -21 -85 -8 -33 -16 -67
-18 -76 -2 -9 -15 -65 -30 -125 -14 -60 -28 -117 -30 -127 -2 -10 -7 -28 -11
-39 -3 -11 -7 -30 -9 -41 -3 -22 -55 -238 -100 -418 -13 -53 -26 -107 -29
-120 -5 -28 -38 -166 -102 -429 -84 -346 -88 -363 -99 -415 -21 -90 -84 -347
-87 -350 -7 -7 -152 -21 -308 -30 -36 -2 -121 -6 -188 -10 -245 -14 -787 -20
-982 -11 -41 2 -87 4 -101 5 -24 1 -28 6 -38 59 -5 31 -13 68 -16 82 -3 14 -7
35 -9 46 -2 12 -16 76 -30 141 -15 66 -28 130 -31 144 -3 13 -7 35 -10 49 -3
14 -7 34 -9 45 -3 11 -23 108 -46 215 -23 107 -44 204 -46 214 -2 11 -15 72
-29 136 -31 142 -26 119 -69 330 -20 96 -41 193 -46 215 -6 22 -12 54 -15 70
-3 17 -23 134 -45 260 -23 127 -42 236 -43 243 -4 24 -21 13 -25 -15 -2 -16
-19 -120 -38 -233 -19 -113 -37 -221 -40 -240 -2 -19 -7 -42 -9 -50 -2 -8 -7
-31 -10 -50 -14 -87 -36 -208 -45 -245 -11 -46 -57 -258 -64 -295 -2 -14 -25
-118 -50 -232 -25 -113 -47 -217 -50 -230 -2 -13 -14 -66 -26 -118 -12 -52
-23 -104 -25 -115 -3 -11 -12 -54 -21 -95 -9 -41 -17 -79 -18 -85 -29 -141
-39 -168 -64 -161 -9 3 -35 7 -57 10 -110 14 -131 17 -146 22 -9 2 -34 7 -55
9 -22 3 -61 9 -89 15 -27 5 -63 12 -80 15 -84 14 -455 91 -487 101 -10 3 -29
7 -42 10 -118 21 -705 190 -722 208 -7 6 -29 83 -49 171 -55 234 -93 386 -98
391 -3 3 -61 19 -129 35 -67 16 -139 34 -158 39 -19 5 -87 24 -150 41 -262 71
-625 187 -905 289 -104 38 -191 67 -193 65 -2 -1 20 -38 48 -81 51 -77 121
-216 154 -301 12 -34 13 -43 3 -43 -7 0 -17 4 -23 9 -5 4 -62 36 -126 69 -65
34 -161 87 -215 118 -54 31 -118 68 -143 82 -25 14 -64 38 -87 53 -23 16 -44
29 -47 29 -8 0 -243 153 -406 264 -125 85 -511 371 -593 439 -15 13 91 -36
235 -108 296 -147 660 -310 925 -415 98 -39 193 -77 212 -86 18 -8 35 -13 38
-11 3 4 -70 103 -86 117 -4 3 -33 37 -66 75 -139 162 -321 345 -445 445 -30
25 -57 48 -60 51 -3 3 -61 47 -130 97 -207 151 -258 193 -359 292 -123 120
-149 150 -199 235 -66 109 -85 167 -88 270 -2 69 2 104 17 149 21 61 63 129
96 156 63 51 96 70 163 95 69 26 86 29 220 29 119 0 161 -4 235 -23 50 -12 97
-24 105 -26 76 -17 346 -132 494 -211 36 -19 69 -34 74 -34 5 0 8 30 7 67 l-3
67 27 -31 c14 -17 46 -56 71 -88 239 -304 621 -705 909 -955 35 -30 69 -59 75
-65 34 -31 140 -119 202 -168 l72 -56 -14 52 c-7 29 -15 63 -18 77 -2 14 -21
93 -41 175 -20 83 -49 206 -66 275 -16 69 -41 170 -54 225 -13 55 -38 159 -55
230 -17 72 -38 157 -46 190 -8 33 -16 70 -19 83 -6 26 -4 20 -45 184 -17 70
-33 135 -34 145 -2 10 -9 36 -14 58 -6 22 -13 51 -16 65 -2 14 -25 111 -51
215 -25 105 -48 199 -51 210 -11 56 -67 284 -75 309 -5 16 -9 33 -9 37 0 13
52 14 639 13 470 -1 565 -4 571 -15z"/>
<path d="M7478 13305 c-2 -2 -23 -6 -48 -9 -185 -25 -382 -128 -545 -285 -169
-163 -296 -324 -510 -651 -212 -325 -481 -728 -505 -760 -15 -19 -58 -78 -96
-130 -118 -164 -301 -391 -413 -514 -274 -302 -527 -534 -814 -748 -65 -48
-116 -88 -113 -88 3 0 25 11 48 24 78 43 185 100 483 256 234 123 311 163 320
170 6 4 20 11 32 14 19 6 23 1 38 -51 59 -203 233 -379 440 -443 22 -7 50 -16
61 -21 12 -4 59 -13 104 -20 324 -47 628 121 833 462 77 128 132 276 154 414
15 94 7 250 -16 323 -39 120 -132 217 -233 243 -27 7 -48 16 -48 19 0 14 113
160 225 290 42 49 250 257 308 307 388 342 915 599 1377 673 41 6 86 14 100
16 14 2 68 7 120 11 52 3 96 7 98 8 4 3 -125 85 -134 85 -3 0 -18 8 -32 19
-15 10 -65 38 -112 63 -47 25 -96 51 -110 59 -14 7 -27 14 -30 15 -3 0 -50 22
-105 48 -141 67 -339 140 -440 162 -127 28 -190 36 -302 39 -73 1 -134 1 -135
0z"/>
<path d="M1412 11019 c-91 -28 -179 -176 -218 -367 -13 -64 -22 -117 -21 -118
1 -1 29 -5 62 -8 33 -4 83 -11 110 -16 28 -5 66 -12 85 -14 106 -12 369 -87
525 -148 105 -41 320 -150 344 -173 11 -11 9 -24 -12 -82 -115 -304 -34 -554
218 -681 172 -86 322 -82 465 15 121 81 266 288 335 478 10 28 21 53 24 57 6
7 94 22 196 33 33 4 61 8 63 9 1 2 -12 9 -30 16 -18 7 -75 33 -127 57 -51 23
-96 43 -98 43 -14 0 -548 269 -673 340 -79 44 -146 80 -148 80 -3 0 -13 6 -21
14 -9 7 -36 25 -61 38 -25 14 -130 78 -235 143 -290 180 -417 242 -568 275
-74 16 -178 20 -215 9z"/>
<path d="M14729 7732 l-36 -3 0 -475 0 -475 26 6 c14 4 40 13 56 20 41 19 243
90 450 160 430 144 901 269 1320 350 77 15 446 75 495 80 30 3 66 8 80 10 22
3 91 11 180 20 14 2 34 3 45 4 22 1 3 14 -125 80 -122 63 -319 134 -435 157
-110 22 -188 36 -225 40 -25 3 -58 7 -75 10 -91 12 -333 16 -990 18 -401 0
-746 0 -766 -2z"/>
<path d="M18663 7732 l-42 -3 0 -154 c0 -85 4 -157 9 -160 5 -3 29 -8 52 -10
40 -4 98 -13 143 -21 23 -4 120 -22 162 -30 123 -22 509 -130 588 -164 11 -4
61 -24 110 -43 50 -20 117 -48 150 -63 33 -15 62 -28 65 -28 3 -1 42 -19 85
-40 219 -108 466 -267 673 -431 136 -108 157 -129 126 -123 -18 3 -19 -9 -22
-208 -2 -162 1 -213 10 -221 7 -5 45 -22 83 -38 90 -36 329 -152 420 -203 105
-58 147 -82 184 -105 l34 -20 -19 29 c-103 163 -308 410 -499 602 -155 155
-161 162 -131 163 17 0 201 1 409 1 l377 0 0 634 c0 500 -3 634 -12 635 -52 2
-2922 3 -2955 1z"/>
<path d="M17717 7453 c-1 -1 -63 -4 -137 -8 -224 -11 -232 -13 -183 -39 45
-23 201 -155 269 -228 221 -237 360 -537 400 -864 l6 -51 -39 -8 c-21 -4 -51
-9 -68 -12 -16 -3 -82 -16 -145 -30 -63 -13 -122 -26 -131 -28 -135 -28 -584
-154 -816 -230 l-83 -26 -1 -37 c-3 -168 -86 -317 -229 -412 -49 -33 -178 -86
-230 -95 -18 -3 -36 -8 -40 -10 -14 -8 -139 -25 -236 -31 l-101 -6 1 136 c1
107 4 138 16 149 8 8 96 44 195 81 99 37 203 76 230 86 40 15 188 68 384 136
11 3 12 22 8 87 -15 208 -74 356 -183 456 -121 111 -345 179 -609 185 l-40 1
0 -516 0 -516 -85 -34 c-47 -18 -103 -40 -125 -50 -22 -9 -103 -43 -180 -74
-77 -31 -153 -63 -170 -70 -16 -8 -75 -32 -130 -55 -55 -23 -113 -48 -130 -55
-16 -8 -91 -39 -165 -71 -74 -31 -157 -67 -185 -79 -27 -12 -59 -25 -71 -29
l-21 -6 1 835 c1 459 -3 835 -7 835 -10 0 -273 -105 -442 -177 -328 -139 -814
-373 -1128 -541 -43 -23 -80 -42 -82 -42 -3 0 -5 11 -5 25 0 14 -4 25 -8 25
-5 0 -36 -29 -70 -65 -33 -36 -59 -65 -56 -65 3 0 33 16 66 35 62 37 79 40 84
14 1 -7 9 -39 17 -69 9 -30 25 -91 37 -135 11 -44 32 -123 46 -175 15 -52 28
-103 29 -113 2 -9 6 -21 9 -25 3 -5 8 -22 11 -38 3 -16 14 -63 25 -104 12 -41
22 -82 25 -90 34 -129 82 -314 125 -473 31 -115 49 -202 44 -207 -5 -4 -198
-83 -429 -175 -231 -91 -429 -170 -440 -175 -22 -9 -201 -75 -225 -83 -28 -8
-34 -8 -36 5 -5 29 -15 74 -68 318 -30 140 -65 305 -77 365 -11 61 -23 119
-25 130 -2 11 -11 58 -20 105 -9 47 -18 94 -20 105 -6 28 -42 233 -49 275 -3
19 -8 42 -10 50 -2 8 -7 35 -10 60 -4 24 -8 47 -10 50 -1 3 -6 28 -9 55 -4 28
-8 61 -11 75 -2 14 -7 43 -10 65 -3 22 -10 65 -15 95 -5 30 -12 73 -15 95 -3
22 -7 54 -10 70 -3 17 -7 48 -10 70 -4 22 -8 49 -9 60 -2 11 -12 82 -22 158
-10 75 -22 137 -26 137 -4 0 -8 -3 -9 -7 0 -5 -2 -17 -4 -28 -2 -11 -7 -40
-10 -65 -13 -100 -17 -129 -30 -215 -8 -49 -17 -110 -20 -135 -3 -25 -11 -74
-16 -110 -9 -62 -14 -87 -24 -147 -2 -16 -13 -84 -24 -153 -12 -69 -22 -134
-25 -145 -2 -11 -7 -40 -11 -65 -17 -104 -64 -359 -70 -380 -2 -8 -6 -32 -9
-53 -4 -21 -13 -71 -21 -110 -8 -40 -16 -83 -19 -97 -2 -14 -14 -70 -26 -125
-20 -96 -23 -112 -35 -180 -3 -16 -11 -48 -17 -70 -6 -22 -12 -53 -15 -70 -3
-16 -13 -66 -24 -110 -10 -44 -19 -83 -19 -86 0 -4 187 -6 416 -7 228 0 417
-2 419 -4 2 -2 -30 -16 -73 -30 -42 -15 -156 -54 -252 -88 -353 -124 -989
-325 -1126 -355 -20 -4 -185 -48 -244 -65 -37 -10 -280 -69 -315 -76 -11 -2
-47 -10 -80 -18 -33 -8 -76 -17 -96 -20 -21 -4 -41 -12 -47 -19 -5 -6 -40
-124 -76 -262 -36 -137 -73 -275 -81 -305 -60 -221 -77 -287 -80 -300 -7 -32
-78 -297 -90 -335 -11 -33 -11 -41 1 -45 19 -7 1262 -5 1269 2 6 5 64 236 79
308 4 23 63 267 120 504 13 54 28 101 34 105 17 10 1311 6 1321 -4 7 -8 26
-86 56 -225 2 -9 28 -124 59 -257 30 -134 58 -255 61 -270 3 -15 13 -59 23
-98 l17 -69 648 -1 c357 0 651 3 653 7 3 4 -16 85 -41 180 -25 95 -56 214 -69
263 -13 50 -36 135 -51 190 -15 55 -29 107 -30 115 -2 8 -13 49 -25 90 -11 41
-23 85 -26 98 -2 12 -25 98 -49 190 -99 365 -115 428 -119 447 -2 11 -18 71
-36 134 -17 62 -33 120 -35 130 -2 9 -26 103 -55 209 -28 107 -54 204 -56 217
-2 14 -9 36 -14 50 -16 42 -12 63 13 71 12 3 40 15 62 25 22 9 128 54 235 99
107 45 209 88 225 95 17 7 68 30 115 50 47 20 103 45 125 55 22 9 85 37 140
60 55 23 124 53 153 66 111 51 174 75 180 70 3 -4 5 -660 5 -1459 l0 -1452
621 1 c342 1 626 2 631 3 7 1 10 425 9 1253 0 689 3 1260 7 1268 5 11 13 1 29
-35 25 -57 324 -797 350 -865 20 -52 195 -487 217 -540 8 -19 110 -271 227
-560 l211 -524 662 -1 c365 0 663 3 663 7 0 7 -183 470 -215 543 -7 17 -22 55
-34 85 -12 30 -26 64 -31 75 -5 11 -45 112 -90 225 -44 113 -85 214 -90 225
-15 32 -531 1318 -536 1335 -3 10 12 23 44 39 115 56 303 217 396 342 168 224
290 548 313 832 6 73 6 275 0 351 -1 19 3 30 13 31 8 2 74 12 145 23 72 12
150 23 175 26 25 3 72 8 105 11 33 4 71 8 85 10 158 23 855 23 878 0 3 -3 5
-939 5 -2080 0 -1141 3 -2075 6 -2076 3 -1 291 -2 639 -3 l632 -1 0 1931 0
1931 -82 31 c-338 127 -738 224 -1068 257 -36 4 -76 9 -90 10 -14 2 -28 4 -32
4 -3 1 -5 26 -4 57 1 31 -3 58 -7 61 -5 3 -199 5 -432 6 l-424 0 0 470 c0 258
-4 473 -8 477 -4 5 -42 11 -83 15 -41 3 -88 8 -105 10 -103 12 -699 28 -708
18z"/>
</g>
</svg>
