<?xml version="1.0" encoding="UTF-8" standalone="no"?>
<!-- Created with Inkscape (http://www.inkscape.org/) -->

<svg
   xmlns:dc="http://purl.org/dc/elements/1.1/"
   xmlns:cc="http://creativecommons.org/ns#"
   xmlns:rdf="http://www.w3.org/1999/02/22-rdf-syntax-ns#"
   xmlns:svg="http://www.w3.org/2000/svg"
   xmlns="http://www.w3.org/2000/svg"
   xmlns:sodipodi="http://sodipodi.sourceforge.net/DTD/sodipodi-0.dtd"
   xmlns:inkscape="http://www.inkscape.org/namespaces/inkscape"
   width="572.35876mm"
   height="465.12631mm"
   viewBox="0 0 572.35875 465.12629"
   version="1.1"
   id="svg8"
   inkscape:version="0.92.4 (5da689c313, 2019-01-14)"
   sodipodi:docname="SwartNinjaLogoV3-white.svg">
  <defs
     id="defs2">
    <clipPath
       clipPathUnits="userSpaceOnUse"
       id="clipPath5533">
      <g
         id="use5535"
         inkscape:label="Clip">
        <path
           d="m -46.262387,114.04041 h 17.933789 v 7.56543 h -5.18418 v 25.54883 h -7.615039 v -25.54883 h -5.13457 z"
           style="font-style:normal;font-variant:normal;font-weight:normal;font-stretch:normal;font-size:192px;line-height:1.25;font-family:'Tw Cen MT Condensed Extra Bold';-inkscape-font-specification:'Tw Cen MT Condensed Extra Bold, ';letter-spacing:0px;word-spacing:0px;fill:#000000;fill-opacity:1;stroke:none;stroke-width:0.26458332"
           id="path5563"
           inkscape:connector-curvature="0" />
      </g>
    </clipPath>
  </defs>
  <sodipodi:namedview
     id="base"
     pagecolor="#ffffff"
     bordercolor="#666666"
     borderopacity="1.0"
     inkscape:pageopacity="0.0"
     inkscape:pageshadow="2"
     inkscape:zoom="0.35355339"
     inkscape:cx="786.30264"
     inkscape:cy="673.10145"
     inkscape:document-units="mm"
     inkscape:current-layer="g5723"
     showgrid="false"
     inkscape:window-width="1920"
     inkscape:window-height="1017"
     inkscape:window-x="1912"
     inkscape:window-y="1072"
     inkscape:window-maximized="1"
     showguides="true"
     inkscape:guide-bbox="true"
     fit-margin-top="0"
     fit-margin-left="0"
     fit-margin-right="0"
     fit-margin-bottom="0">
    <sodipodi:guide
       position="483.77437,381.09052"
       orientation="0,1"
       id="guide5698"
       inkscape:locked="false" />
  </sodipodi:namedview>
  <metadata
     id="metadata5">
    <rdf:RDF>
      <cc:Work
         rdf:about="">
        <dc:format>image/svg+xml</dc:format>
        <dc:type
           rdf:resource="http://purl.org/dc/dcmitype/StillImage" />
        <dc:title></dc:title>
      </cc:Work>
    </rdf:RDF>
  </metadata>
  <g
     inkscape:groupmode="layer"
     id="layer4"
     inkscape:label="Ninja"
     style="display:inline"
     transform="translate(176.57479,152.23288)">
    <g
       id="g5723"
       transform="matrix(4.439134,0,0,4.439134,-375.52146,-465.45374)">
      <path
         sodipodi:nodetypes="ccccssc"
         inkscape:connector-curvature="0"
         id="path1428"
         d="m 51.811806,124.66408 c 0,0 0.269454,-3.11798 1.924679,-2.96401 3.19497,0.30795 3.462834,2.17068 12.510426,6.12049 l -1.578237,0.19246 c 0,0 -1.494371,4.82846 -4.657727,3.46443 -3.145647,-1.35639 -1.385771,-4.61924 -1.385771,-4.61924 -2.877604,-1.91222 -6.81337,-2.19413 -6.81337,-2.19413 z"
         style="fill:#ffffff;stroke:none;stroke-width:0.26458332px;stroke-linecap:butt;stroke-linejoin:miter;stroke-opacity:1;fill-opacity:1" />
      <path
         sodipodi:nodetypes="cccccc"
         inkscape:connector-curvature="0"
         id="path1430"
         d="m 71.097107,127.20466 c 14.550884,-10.2166 11.51286,-25.59979 26.714569,-16.12883 0,0 -7.651041,-0.26391 -13.395777,7.77571 3.964842,0.76987 1.154808,9.12299 -3.733882,8.73806 -3.695385,-0.38494 -4.041828,-3.31046 -4.041828,-3.31046 z"
         style="fill:#ffffff;stroke:none;stroke-width:0.26458332px;stroke-linecap:butt;stroke-linejoin:miter;stroke-opacity:1;fill-opacity:1" />
      <g
         id="flowRoot1465"
         style="font-style:normal;font-variant:normal;font-weight:normal;font-stretch:normal;font-size:96px;line-height:1.25;font-family:'Agency FB';-inkscape-font-specification:'Agency FB';letter-spacing:0px;word-spacing:0px;fill:#000000;fill-opacity:1;stroke:none"
         transform="matrix(0.26458333,0,0,0.26458333,70.268842,-50.058116)"
         aria-label="NINJA">
        <g
           id="g856"
           style="fill:#ffffff;fill-opacity:1">
          <path
             style="display:inline;fill:#ffffff;stroke:none;stroke-width:0.27143615;stroke-linecap:round;stroke-miterlimit:4;stroke-dasharray:none;stroke-dashoffset:0;stroke-opacity:1;paint-order:normal;fill-opacity:1"
             d="m 92.834801,70.559 c -21.72471,0 -39.61087,18.37721 -41.90596,41.98865 0,0 -6.40688,0.58161 -5.15318,11.54659 1.77647,9.90112 5.23174,14.37107 7.79333,16.37936 0.309,-0.0229 0.62374,-0.0362 0.94619,-0.0362 2.11667,0 4.2168,0.45475 6.30039,1.36426 v 6.55567 c 2.36335,3.08251 5.07489,5.82166 8.06876,8.13749 l -3.62872,-15.13965 h 7.21816 l 4.25608,19.91972 c 0.0349,0.0162 0.0699,0.032 0.1049,0.0481 h 0.005 l 3.86953,-19.96778 h 6.54844 l 3.91914,19.74454 h 0.0992 l 4.06797,-19.74454 h 7.416599 l -6.445609,26.89035 c 2.837333,-0.26389 5.591679,-0.70067 8.271329,-1.26969 l 6.7939,-25.62066 h 8.43308 l 2.6262,9.90328 c 7.7481,-8.54809 12.55117,-20.42569 12.55117,-33.55868 0,-2.30676 -0.14835,-4.57476 -0.4346,-6.79287 7.15459,4.73955 14.7987,-5.72355 17.16484,1.70894 0.3071,-3.35851 1.42617,-11.06699 -6.30193,-13.11703 -6.87706,-1.62604 -12.77545,0.99684 -12.77545,0.99684 C 153.08091,87.41758 146.0415,75.26647 144.07852,73.1263 142.64324,84.9235 131.78808,80.90587 131.02867,97.7217 124.30453,81.67396 109.73046,70.55902 92.835131,70.55902 Z m 29.604399,80.69947 c -0.27808,0.30679 -0.55933,0.61036 -0.84491,0.90847 0,0 0.34617,-0.20543 0.94309,-0.53692 z m 0.0982,0.37155 2.30012,8.67286 c 2.58021,-1.07626 5.10072,-2.17304 7.5644,-3.23701 v -10.00559 c -4.66577,1.78941 -8.25318,3.67493 -9.86452,4.56974 z m 9.86452,-4.56974 c 4.58028,-1.75664 10.17485,-3.4094 15.90135,-3.90777 -1.89171,-1.19803 -4.27338,-1.79731 -7.1453,-1.79731 h -8.75605 z m 15.90135,-3.90777 c 0.43927,0.27819 0.85227,0.58841 1.23869,0.9312 1.73521,1.5393 2.73298,3.54862 2.99981,6.02341 2.83069,-0.50079 5.62689,-0.68991 8.41034,-0.45113 v -0.73536 h -5.13457 v -5.67201 c -2.47946,-0.31173 -5.00907,-0.31414 -7.51427,-0.0961 z m 7.51427,0.0961 c 4.68739,0.58933 9.19522,2.2799 13.01988,5.672 h 4.91391 v -7.56543 h -17.93379 z m 13.01988,5.672 h -0.27027 v 2.54351 c 1.45944,0.58444 2.9207,1.31537 4.38733,2.20866 -1.24938,-1.8638 -2.63217,-3.43521 -4.11706,-4.75217 z m -0.27027,2.54351 c -2.53877,-1.01665 -5.07176,-1.58998 -7.61504,-1.80815 v 24.81347 h 7.61504 z m -16.0254,-1.35702 c -2.51381,0.44473 -5.05519,1.13645 -7.63881,1.99574 1e-5,0.006 5.2e-4,0.0115 5.2e-4,0.0176 0,2.26551 -1.66192,3.43133 -4.98574,3.49746 v -1.69033 c -2.45293,0.96518 -4.96064,2.03482 -7.51582,3.13831 v 17.40359 h 7.51582 v -15.08125 h 0.12402 l 6.07715,15.08125 h 7.9375 l -6.00273,-14.93243 c 1.48827,-0.76068 2.62051,-1.88516 3.39772,-3.37343 0.77722,-1.50482 1.16634,-3.05925 1.16634,-4.66328 0,-0.48061 -0.0275,-0.94349 -0.076,-1.3932 z m -12.62403,3.82044 c 1.68103,-0.66146 3.34254,-1.27835 4.98522,-1.8247 -0.003,-1.52837 -0.39116,-2.6226 -1.1653,-3.28145 -0.76068,-0.66145 -2.03399,-1.01699 -3.81992,-1.0666 z m -15.08022,6.37532 c -2.20503,0.91977 -4.45707,1.82068 -6.76238,2.6727 7.2e-4,0.003 0.001,0.006 0.002,0.009 h -0.0279 c -4.28838,1.58397 -8.75869,2.99198 -13.46327,3.99097 l -1.98696,7.4936 h 7.66465 l 1.31465,-5.53144 h 7.9375 l 1.26504,5.53144 h 7.81296 z m -6.78821,2.68201 c 0.009,-0.003 0.0173,-0.006 0.0258,-0.009 -1.12341,-4.92445 -1.96612,-9.60947 -2.52801,-14.05496 h -0.0992 c -0.59531,4.5806 -1.4304,9.26869 -2.50527,14.06426 z m -21.734599,5.26066 c -0.88288,0.0821 -1.77339,0.14881 -2.6727,0.19585 -1.40528,0.0735 -3.80292,0.19087 -6.88743,0.0491 l 1.27175,5.97897 h 6.79649 z m -9.56013,0.24494 -1.87844,-8.82943 c -0.34727,-1.62057 -0.63666,-3.18328 -0.86817,-4.68809 h -0.0992 c -0.41341,2.56315 -0.71106,4.27467 -0.89296,5.13457 l -1.7167,7.88893 c 1.98578,0.269 3.81712,0.41872 5.45549,0.49402 z m -5.45549,-0.49402 c -3.09108,-0.41873 -6.54884,-1.13099 -10.21023,-2.30477 l 2.10427,8.77776 h 6.69727 z m -10.21023,-2.30477 -0.81597,-3.40496 c -3.36481,-0.75778 -6.53161,-1.79696 -9.25318,-2.83445 0.61236,0.82925 1.07896,1.71495 1.3994,2.6572 2.95852,1.51461 5.87321,2.68568 8.66975,3.58221 z m -8.66975,-3.58221 c -3.35496,-1.71757 -6.76645,-3.87832 -10.1291,-6.60684 0,0 3.54072,1.97152 8.7297,3.94964 -0.12098,-0.16384 -0.24537,-0.32634 -0.37775,-0.48576 -1.52136,-1.86862 -3.02617,-3.31556 -4.51446,-4.34082 -2.497,-1.73633 -3.7455,-3.29903 -3.7455,-4.68809 0,-0.79375 0.26458,-1.41386 0.79375,-1.86035 0.5457,-0.46302 1.28157,-0.69453 2.20761,-0.69453 1.38907,0 3.19981,0.61184 5.43223,1.83554 v -0.86091 c -1.50138,-1.95825 -2.86333,-4.05385 -4.06435,-6.27145 0,0 -1.36712,-0.18924 -3.18223,-1.6123 -2.43252,0.18026 -4.44942,1.06822 -6.04873,2.66754 -1.80248,1.80247 -2.70371,4.13411 -2.70371,6.99492 0,2.10013 0.57877,4.01009 1.73633,5.72988 1.17408,1.70325 3.05924,3.54707 5.65546,5.53145 1.07487,0.82682 1.82728,1.52962 2.25723,2.10839 0.44649,0.57878 0.66973,1.1989 0.66973,1.86036 0,0.85989 -0.27285,1.55442 -0.81856,2.08359 -0.5457,0.51263 -1.28984,0.76895 -2.23242,0.76895 -1.62057,0 -3.62148,-0.69454 -6.00273,-2.0836 v 7.71426 c 2.06705,0.99219 4.15065,1.48828 6.25078,1.48828 3.07578,0 5.61413,-0.93431 7.61504,-2.80293 2.00091,-1.88516 3.00136,-4.25814 3.00136,-7.11894 0,-1.17044 -0.17795,-2.27198 -0.52968,-3.30626 z m 7.85378,0.17725 c 3.88897,0.87582 8.02651,1.37658 11.99824,1.06195 -1.86579,-0.53839 -3.68009,-1.21928 -5.43636,-2.02572 h -0.0946 l -0.0103,-0.0481 c -2.77725,-1.28508 -5.40466,-2.892 -7.84552,-4.78007 z M 99.209614,96.80286 c 3.294216,0.0495 9.870826,1.36464 9.777696,11.09596 -1.52132,20.06397 -18.261829,22.75931 -33.275489,22.10098 -7.57311,0.85564 -9.31228,4.96663 -16.01711,6.33243 -3.16618,0.74499 -6.58107,-5.46296 -7.88479,-10.73991 -1.30372,-5.27695 0.12454,-7.07761 0.12454,-7.07761 7.09457,-3.08752 10.09731,6.37151 16.38918,6.89106 4.65614,-0.74498 13.8464,-25.35458 29.05456,-28.49542 0,0 0.733343,-0.12398 1.831413,-0.10749 z"
             id="path5660"
             inkscape:connector-curvature="0"
             transform="matrix(3.7795275,0,0,3.7795275,-265.58303,189.19604)" />
        </g>
      </g>
    </g>
  </g>
</svg>
